<svg fill="none" height="24" viewBox="0 0 24 24" width="24" xmlns="http://www.w3.org/2000/svg"><g clip-rule="evenodd" fill="#000" fill-rule="evenodd"><path d="m19.1001 19.16c.59-.9.81-1.36 1.26-2.37-3.32-1.26-3.85-5.99-.57-7.80001-1-1.26-2.41-1.98999-3.74-1.98999-.96 0-1.62.25001-2.21.48001-.5.19-.95.35999-1.51.35999-.6 0-1.13-.18999-1.69-.38999-.61-.22-1.25004-.45001-2.05004-.45001-1.49 0-3.07999.91-4.08999 2.47-1.42 2.2-1.17 6.32 1.12 9.84.82 1.26 1.92 2.67 3.35 2.69.6.01.99-.17 1.42003-.36.49-.22 1.02-.46 1.95-.46.93-.01 1.45.24 1.94.46.42.19.8.37 1.39.36 1.45-.02 2.61-1.58 3.43-2.84z"/><path d="m15.8404 2c.16 1.1-.29 2.19001-.88 2.95001-.63.82-1.73 1.45999-2.79 1.41999-.19-1.06.3-2.15001.9-2.88001.67-.8 1.8-1.41999 2.77-1.48999z"/></g></svg>